<?xml version="1.0" standalone="no"?>
<!DOCTYPE svg PUBLIC "-//W3C//DTD SVG 20010904//EN"
 "http://www.w3.org/TR/2001/REC-SVG-20010904/DTD/svg10.dtd">
<svg version="1.0" xmlns="http://www.w3.org/2000/svg"
 width="419.000000pt" height="87.000000pt" viewBox="0 0 419.000000 87.000000"
 preserveAspectRatio="xMidYMid meet">

<g transform="translate(0.000000,87.000000) scale(0.100000,-0.100000)"
fill="#000000" stroke="none">
<path d="M1779 844 c-13 -14 -22 -28 -21 -31 2 -2 0 -8 -4 -11 -4 -4 -4 -1 0
6 8 14 -10 17 -19 2 -3 -5 -1 -10 4 -10 18 0 12 -24 -9 -38 -22 -14 -27 -4 -7
18 6 8 3 7 -9 -3 -11 -9 -24 -14 -29 -10 -4 5 -5 3 -1 -4 3 -6 2 -15 -4 -18
-8 -5 -7 -12 2 -23 11 -13 11 -14 -8 -4 -18 9 -25 7 -49 -18 -16 -17 -26 -33
-22 -36 4 -4 9 1 13 10 7 19 25 22 20 4 -1 -7 -1 -10 1 -6 2 4 12 4 21 1 13
-4 12 -2 -3 11 -11 10 -14 15 -8 11 9 -4 11 0 7 12 -5 17 -5 17 6 1 9 -14 14
-15 29 -6 11 6 18 20 16 29 -2 12 1 16 10 13 8 -3 11 -13 8 -22 -5 -14 -3 -15
7 -5 10 9 16 7 30 -9 19 -24 42 -17 34 10 -4 10 -2 13 3 7 7 -9 17 -10 47 -6
5 0 3 7 -3 15 -9 11 -9 15 1 19 7 2 2 2 -11 0 -18 -3 -22 0 -18 11 4 10 1 13
-9 9 -10 -4 -12 0 -8 11 3 9 10 16 14 16 4 0 8 11 8 25 0 21 -3 23 -15 14 -8
-7 -12 -18 -9 -26 3 -7 1 -13 -4 -13 -15 0 -12 17 6 45 21 32 14 32 -17 -1z
m4 -51 c2 -5 -9 -18 -24 -31 -16 -13 -29 -19 -29 -14 0 5 7 12 15 16 8 3 15
12 15 21 0 15 16 21 23 8z m20 -44 c13 -13 16 -20 7 -17 -8 3 -23 1 -32 -3
-22 -12 -34 7 -18 26 16 19 17 19 43 -6z"/>
<path d="M200 748 c0 -5 -4 -7 -9 -3 -5 3 -13 0 -16 -6 -5 -6 0 -9 11 -8 11 2
25 0 32 -4 6 -5 12 -5 12 0 0 4 4 2 9 -5 6 -11 10 -10 15 3 5 14 2 16 -14 12
-27 -7 -25 2 3 12 19 8 18 9 -10 9 -18 -1 -33 -5 -33 -10z"/>
<path d="M276 749 c2 -4 37 -6 77 -4 43 3 62 2 47 -3 -23 -7 -24 -8 -5 -15 16
-7 17 -10 5 -18 -13 -9 -13 -10 0 -6 8 2 14 10 12 16 -1 6 2 11 8 11 6 0 10
-4 10 -10 0 -5 4 -10 10 -10 5 0 6 7 3 17 -4 11 -3 14 5 9 7 -4 12 -14 12 -22
0 -16 26 -19 35 -4 3 5 0 7 -8 4 -8 -3 -17 2 -20 10 -8 19 23 17 47 -3 9 -7
16 -9 16 -3 0 9 -17 20 -50 30 -27 8 -209 9 -204 1z"/>
<path d="M945 749 c-17 -6 -17 -8 -2 -8 9 -1 17 -5 17 -9 0 -4 8 -8 18 -8 10
0 19 6 19 13 0 7 -3 11 -5 8 -3 -3 -10 -1 -16 4 -6 5 -20 5 -31 0z"/>
<path d="M1322 748 c-5 -5 -19 -10 -32 -13 -33 -6 -64 -36 -48 -47 9 -5 8 -8
-5 -8 -11 0 -17 -5 -14 -12 2 -7 1 -22 -4 -34 -4 -11 -3 -27 2 -35 8 -12 10
-12 8 1 -3 28 1 43 9 36 4 -4 7 -13 7 -19 0 -7 6 -12 14 -12 19 0 23 36 6 55
-12 14 -12 17 5 28 17 10 18 9 14 -6 -5 -14 -4 -14 5 -2 14 21 25 6 12 -18
-14 -26 -14 -52 -1 -52 5 0 7 6 5 13 -3 6 8 21 24 31 16 11 27 26 24 33 -3 7
0 13 6 13 10 0 15 -12 13 -31 -1 -8 36 -4 45 5 5 4 4 7 -2 6 -21 -5 -33 0 -39
15 -5 13 -2 14 15 4 15 -8 19 -8 15 0 -4 6 -3 11 3 11 5 0 11 -5 13 -12 3 -7
7 -6 11 5 5 14 0 17 -36 18 -36 1 -38 2 -17 9 22 7 23 8 4 9 -25 1 -47 -22
-49 -50 -1 -11 -7 -25 -14 -32 -10 -9 -11 -6 -6 15 6 23 3 28 -19 34 -29 7
-27 16 5 21 14 2 18 -1 13 -9 -4 -7 5 -2 19 11 15 14 27 25 27 26 0 6 -31 0
-38 -7z m-57 -48 c3 -5 1 -10 -4 -10 -6 0 -11 5 -11 10 0 6 2 10 4 10 3 0 8
-4 11 -10z m5 -60 c0 -14 -28 -1 -34 16 -4 12 -2 12 14 4 11 -6 20 -15 20 -20z"/>
<path d="M1408 753 c6 -2 18 -2 25 0 6 3 1 5 -13 5 -14 0 -19 -2 -12 -5z"/>
<path d="M1888 750 c26 -11 31 -43 5 -33 -17 6 -17 5 -2 -13 9 -10 19 -26 22
-34 3 -8 6 9 6 38 1 50 0 52 -26 51 -27 0 -27 -1 -5 -9z"/>
<path d="M2002 623 c2 -119 3 -125 5 -40 2 60 8 97 14 97 6 0 9 7 5 15 -3 8 0
15 7 15 9 0 9 3 -1 9 -7 4 -12 14 -10 21 2 7 -3 15 -9 17 -10 4 -13 -27 -11
-134z"/>
<path d="M2040 745 c0 -8 5 -15 10 -15 6 0 10 4 10 9 0 6 17 12 38 14 34 3 33
4 -10 5 -37 2 -48 -2 -48 -13z"/>
<path d="M2210 750 c19 -4 31 -8 26 -9 -5 0 1 -12 13 -25 14 -15 20 -30 16
-37 -5 -7 -4 -10 3 -5 6 3 10 15 9 26 -1 10 -5 16 -11 13 -5 -4 -7 1 -3 10 4
12 2 14 -11 10 -14 -6 -15 -4 -5 8 10 13 6 15 -30 16 l-42 1 35 -8z"/>
<path d="M2280 742 c6 -13 14 -21 18 -18 3 4 -2 14 -12 24 -18 16 -18 16 -6
-6z"/>
<path d="M2470 748 c0 -5 -8 -7 -19 -3 -13 4 -26 -3 -44 -25 -14 -16 -30 -30
-36 -30 -6 0 -8 -7 -4 -16 4 -12 8 -13 14 -3 4 7 23 13 43 14 23 0 31 -4 26
-10 -6 -7 -2 -15 10 -22 15 -10 18 -9 15 5 -1 9 3 20 8 24 6 4 -1 10 -16 13
-39 10 -33 22 11 20 43 -2 55 2 46 16 -3 6 -12 5 -21 -3 -14 -11 -15 -10 -9 8
4 15 2 21 -9 21 -8 0 -15 -4 -15 -9z m-15 -18 c4 -6 1 -9 -7 -8 -7 2 -12 -5
-12 -14 1 -10 -5 -16 -17 -15 -24 2 -24 2 3 27 25 23 25 23 33 10z"/>
<path d="M2540 720 c17 -22 30 -47 28 -57 -2 -13 3 -17 18 -16 17 2 21 -2 17
-17 -3 -12 1 -22 11 -26 9 -3 16 -17 16 -30 0 -13 4 -24 9 -24 16 0 6 82 -12
94 -10 8 -13 17 -7 26 6 10 3 20 -10 32 -24 23 -37 23 -19 1 12 -14 12 -16 -1
-11 -8 3 -15 16 -15 29 -1 18 -6 23 -19 21 -10 -2 -16 1 -13 5 3 5 -3 10 -14
10 -17 2 -16 -3 11 -37z m70 -40 c-8 -5 -10 -10 -5 -10 6 0 3 -5 -5 -10 -25
-16 -31 -11 -13 10 10 11 22 20 28 20 5 0 3 -5 -5 -10z"/>
<path d="M2894 750 c-10 -4 -22 -6 -26 -3 -5 2 -8 -1 -8 -7 0 -7 -7 -10 -14
-7 -10 4 -13 1 -9 -9 3 -9 0 -12 -9 -9 -16 7 -80 -53 -72 -67 3 -4 1 -8 -4 -8
-6 0 -13 -7 -16 -16 -5 -14 -4 -15 9 -4 11 9 15 9 15 1 0 -7 5 -9 10 -6 6 3
10 1 10 -5 0 -7 -6 -10 -14 -7 -20 8 -37 -15 -26 -33 5 -8 6 -18 3 -24 -4 -5
-10 -1 -14 10 -6 15 -8 12 -8 -13 -1 -17 4 -35 9 -38 6 -3 10 -1 10 5 0 6 8
20 18 31 18 18 19 18 34 2 9 -10 15 -30 13 -45 -2 -19 1 -25 10 -22 10 4 12
-1 8 -17 -4 -15 -3 -20 5 -15 17 10 15 36 -3 42 -23 9 -18 19 12 21 15 0 21
-2 14 -6 -9 -6 -9 -11 2 -19 21 -17 15 21 -6 42 -22 22 -22 30 0 22 10 -4 14
-4 10 0 -4 4 -2 13 4 21 6 7 8 13 3 13 -5 0 -2 5 6 11 12 8 10 9 -10 5 -14 -3
-32 -1 -40 4 -10 7 -11 10 -2 10 6 0 12 5 12 10 0 6 -3 9 -7 9 -20 -3 -34 2
-28 10 3 5 1 12 -4 16 -6 3 -8 -4 -6 -15 2 -11 0 -18 -5 -15 -4 3 -7 13 -5 23
2 9 4 21 4 25 1 5 6 5 13 1 6 -4 9 -3 6 2 -3 5 0 14 7 21 11 10 15 10 19 0 3
-8 8 -7 16 6 6 9 16 15 21 12 5 -4 7 -11 4 -16 -4 -5 5 -9 19 -9 14 0 28 -4
31 -10 10 -17 75 -11 104 9 15 11 43 22 62 24 18 2 12 3 -15 2 -26 -1 -51 -7
-55 -12 -9 -16 -47 -24 -73 -18 -19 5 -25 13 -25 36 0 16 4 25 8 18 4 -6 12
-8 19 -4 9 5 10 2 5 -14 -5 -17 -2 -21 17 -20 16 0 19 2 8 7 -8 4 -15 14 -15
22 0 12 19 16 85 21 l85 6 -106 0 c-58 0 -114 -4 -125 -7z m9 -24 c4 -9 -2
-12 -16 -11 -32 4 -33 4 -17 15 20 13 27 12 33 -4z m-98 -115 c-3 -6 2 -14 11
-19 14 -8 14 -11 3 -18 -8 -5 -25 -9 -39 -10 -20 -1 -26 4 -27 20 -1 11 1 15
4 9 7 -19 21 -16 28 7 3 11 11 20 16 20 6 0 8 -4 4 -9z m30 -51 c-16 -11 -24
-20 -17 -20 6 0 12 -8 12 -17 0 -15 -2 -14 -15 3 -13 17 -12 21 6 37 12 9 26
17 33 17 6 0 -2 -9 -19 -20z"/>
<path d="M3148 753 c-19 -5 -26 -43 -8 -43 5 0 7 7 4 15 -4 10 0 15 11 15 11
0 15 -5 11 -15 -3 -8 -1 -15 4 -15 6 0 11 -21 11 -47 1 -27 3 -40 6 -29 6 24
-6 126 -15 125 -4 -1 -15 -3 -24 -6z"/>
<path d="M3346 745 c5 -11 -1 -15 -19 -15 l-25 0 1 -182 1 -183 3 173 c3 162
5 172 23 172 10 0 21 9 25 19 3 12 17 22 33 24 21 3 19 4 -10 6 -29 1 -36 -2
-32 -14z"/>
<path d="M3463 753 c15 -2 37 -2 50 0 12 2 0 4 -28 4 -27 0 -38 -2 -22 -4z"/>
<path d="M3543 746 c6 -14 3 -17 -10 -12 -16 6 -16 6 0 -12 9 -10 17 -32 16
-48 -1 -29 -1 -29 -9 -4 -8 24 -8 23 -9 -7 -1 -23 4 -33 14 -33 12 0 15 13 15
59 0 35 -5 63 -12 67 -8 5 -9 2 -5 -10z"/>
<path d="M3643 742 c5 -7 13 -9 16 -5 3 4 15 10 26 11 35 6 28 11 -13 9 -32
-2 -38 -5 -29 -15z"/>
<path d="M3740 745 c0 -8 7 -15 15 -15 8 0 15 7 15 15 0 8 -7 15 -15 15 -8 0
-15 -7 -15 -15z"/>
<path d="M3943 753 c4 -6 21 -8 39 -6 18 1 27 0 21 -3 -7 -3 -13 -10 -13 -15
0 -11 23 -7 32 6 4 6 7 -117 6 -272 -1 -155 1 -285 5 -289 3 -4 5 126 4 287
l-2 294 -49 3 c-28 2 -46 0 -43 -5z"/>
<path d="M830 742 c0 -6 -7 -9 -15 -6 -16 6 -21 -11 -6 -20 11 -7 36 22 27 31
-3 3 -6 1 -6 -5z"/>
<path d="M847 729 c-4 -15 -2 -19 10 -15 8 3 27 -3 43 -14 15 -11 32 -20 36
-20 4 0 0 6 -11 13 -10 8 -15 19 -11 25 5 8 -3 12 -24 12 -18 0 -29 4 -25 10
3 6 2 10 -3 10 -5 0 -12 -9 -15 -21z"/>
<path d="M1461 742 c-1 -8 -6 -10 -13 -6 -10 5 -10 4 -2 -5 6 -6 24 -14 39
-17 16 -3 33 -8 39 -11 6 -4 2 3 -8 15 -14 16 -22 19 -32 11 -9 -7 -14 -5 -17
8 -3 10 -5 12 -6 5z"/>
<path d="M3767 724 c-10 -14 -22 -22 -28 -19 -5 4 -9 2 -9 -4 0 -6 -11 -13
-25 -17 -24 -6 -25 -7 -8 -21 10 -8 12 -11 4 -7 -10 5 -12 3 -7 -5 5 -7 14
-10 20 -8 7 3 19 1 27 -5 11 -8 11 -9 -3 -4 -10 3 -20 1 -23 -5 -4 -5 -1 -8 7
-7 8 2 12 -4 10 -14 -2 -11 3 -18 13 -18 9 0 13 -4 10 -10 -3 -5 -1 -10 4 -10
14 0 14 37 1 45 -6 4 -8 10 -5 15 3 4 -7 17 -22 28 l-28 20 28 -1 c16 -1 29
-9 33 -19 3 -10 9 -18 14 -18 5 0 12 -10 16 -22 l7 -23 8 23 c5 12 16 22 24
22 10 0 13 -5 9 -12 -4 -7 -3 -8 4 -4 7 4 12 2 12 -3 0 -6 -4 -11 -10 -11 -5
0 -10 -5 -10 -11 0 -5 4 -8 9 -5 5 4 11 0 14 -6 3 -7 4 0 3 16 -1 28 -12 39
-47 50 -9 2 -24 18 -32 35 -12 25 -13 30 -1 33 7 2 10 8 6 14 -5 8 -13 4 -25
-12z m34 -74 c5 0 9 -6 9 -12 0 -7 -13 1 -27 17 -15 17 -34 29 -42 27 -12 -3
-11 1 4 11 18 14 21 13 33 -14 8 -16 18 -29 23 -29z"/>
<path d="M338 733 c7 -3 16 -2 19 1 4 3 -2 6 -13 5 -11 0 -14 -3 -6 -6z"/>
<path d="M2319 734 c5 -3 7 -16 5 -29 -3 -19 -1 -23 11 -19 13 5 13 9 3 22 -7
8 -12 18 -10 21 2 3 -1 6 -7 8 -7 1 -7 -1 -2 -3z"/>
<path d="M3058 733 c12 -2 32 -2 45 0 12 2 2 4 -23 4 -25 0 -35 -2 -22 -4z"/>
<path d="M287 710 c3 -11 9 -17 14 -14 5 3 6 10 3 16 -4 7 -2 8 4 4 7 -4 12
-2 12 3 0 6 -9 11 -19 11 -14 0 -18 -5 -14 -20z"/>
<path d="M1043 719 c13 -8 15 -14 7 -24 -8 -9 -5 -14 10 -18 17 -4 19 -3 9 9
-6 8 -8 14 -4 14 4 0 2 7 -5 15 -7 8 -18 15 -24 15 -6 0 -3 -5 7 -11z"/>
<path d="M176 689 c-8 -42 -8 -59 2 -59 4 0 8 20 10 45 3 52 -3 59 -12 14z"/>
<path d="M3900 710 c0 -5 5 -10 11 -10 5 0 7 5 4 10 -3 6 -8 10 -11 10 -2 0
-4 -4 -4 -10z"/>
<path d="M3941 704 c0 -11 3 -14 6 -6 3 7 2 16 -1 19 -3 4 -6 -2 -5 -13z"/>
<path d="M221 694 c0 -11 3 -14 6 -6 3 7 2 16 -1 19 -3 4 -6 -2 -5 -13z"/>
<path d="M330 700 c-8 -5 -10 -10 -5 -10 6 0 17 5 25 10 8 5 11 10 5 10 -5 0
-17 -5 -25 -10z"/>
<path d="M1798 690 c-10 -9 -18 -21 -18 -25 0 -5 5 -4 12 3 19 19 33 14 16 -5
-10 -12 -18 -50 -23 -106 -4 -48 -10 -85 -15 -82 -18 11 -37 -6 -32 -30 2 -14
8 -22 13 -19 5 3 6 10 3 16 -4 7 -2 8 4 4 13 -8 32 24 32 53 0 12 5 21 10 21
6 0 10 -5 10 -12 0 -6 3 -8 7 -4 5 4 1 13 -7 19 -12 9 -14 25 -11 67 l5 55 7
-50 7 -50 0 50 c0 28 1 56 1 62 1 8 12 11 34 8 l32 -5 -34 11 c-23 7 -31 13
-22 18 10 7 10 9 -1 13 -7 3 -21 -2 -30 -12z"/>
<path d="M2170 700 c-11 -7 -11 -10 -2 -10 10 0 10 -5 2 -21 -6 -11 -9 -25 -6
-32 2 -7 5 -4 5 6 1 9 5 17 10 17 6 0 8 9 6 20 -2 12 2 20 10 20 9 0 12 -6 9
-15 -3 -8 1 -21 9 -29 21 -22 30 -6 10 17 -10 11 -13 17 -7 14 7 -4 14 -1 17
6 5 15 -42 20 -63 7z"/>
<path d="M3385 700 c-3 -5 3 -10 14 -10 12 0 21 5 21 10 0 6 -6 10 -14 10 -8
0 -18 -4 -21 -10z"/>
<path d="M3465 700 c3 -5 13 -10 21 -10 8 0 14 5 14 10 0 6 -9 10 -21 10 -11
0 -17 -4 -14 -10z"/>
<path d="M3690 700 c-8 -5 -10 -10 -5 -10 6 0 17 5 25 10 8 5 11 10 5 10 -5 0
-17 -5 -25 -10z"/>
<path d="M4003 670 c0 -25 2 -35 4 -22 2 12 2 32 0 45 -2 12 -4 2 -4 -23z"/>
<path d="M770 691 c17 -5 21 -9 12 -15 -7 -4 -10 -12 -6 -17 3 -5 10 -6 16 -3
7 4 8 2 4 -4 -4 -7 -2 -20 3 -29 8 -15 11 -15 12 -3 1 8 1 18 0 23 0 4 9 7 22
7 22 1 57 21 57 34 0 12 -62 -2 -70 -15 -10 -16 -31 -2 -23 16 4 11 -2 15 -23
14 -29 -1 -29 -1 -4 -8z"/>
<path d="M1088 688 c7 -9 12 -20 11 -24 -3 -20 2 -31 15 -31 13 0 13 4 0 28
-7 15 -20 31 -26 35 -10 6 -10 4 0 -8z"/>
<path d="M2076 693 c-11 -11 -6 -23 9 -23 8 0 15 4 15 9 0 13 -16 22 -24 14z"/>
<path d="M3130 689 c0 -5 -6 -7 -12 -3 -9 5 -8 2 1 -9 12 -15 12 -17 -3 -11
-12 5 -15 1 -13 -15 2 -11 7 -24 12 -28 4 -5 5 -2 0 6 -5 9 -4 12 3 7 20 -12
2 -37 -22 -30 -33 10 -48 25 -37 38 14 17 -1 37 -19 26 -10 -6 -11 -10 -3 -10
7 0 10 -6 7 -14 -3 -7 2 -20 10 -29 11 -11 12 -17 4 -19 -7 -3 -5 -7 6 -11 10
-4 15 -3 11 3 -3 6 -1 10 4 10 6 0 11 -5 11 -10 0 -7 6 -7 20 0 12 7 20 7 20
1 0 -5 -10 -13 -21 -16 -12 -4 -18 -10 -13 -14 10 -7 12 -101 2 -101 -3 0 -8
6 -10 12 -3 7 -5 -6 -6 -29 -1 -23 2 -44 7 -47 4 -3 6 5 4 18 -3 13 1 27 8 31
9 6 11 3 6 -8 -3 -9 -3 -18 2 -21 4 -3 6 31 5 76 -2 76 10 97 19 33 2 -16 5
16 6 73 0 56 -1 102 -4 102 -3 0 -5 -5 -5 -11z"/>
<path d="M360 680 c0 -13 30 -13 50 0 11 7 7 10 -17 10 -18 0 -33 -4 -33 -10z"/>
<path d="M435 680 c3 -5 8 -10 11 -10 2 0 4 5 4 10 0 6 -5 10 -11 10 -5 0 -7
-4 -4 -10z"/>
<path d="M567 671 c2 -8 -2 -11 -12 -7 -9 3 -19 -3 -25 -14 -9 -17 -7 -20 12
-20 19 0 23 -6 24 -35 1 -19 -3 -32 -7 -29 -5 3 -9 1 -9 -4 0 -6 7 -13 16 -16
8 -3 12 -2 9 4 -3 6 -1 10 6 10 8 0 8 4 -1 15 -8 9 -9 15 -2 15 6 0 14 -4 17
-10 3 -5 13 -10 21 -10 11 0 14 6 9 23 -4 12 -12 27 -17 32 -5 6 -5 -2 1 -17
8 -22 8 -26 -4 -21 -8 3 -12 9 -9 14 3 5 -2 6 -10 3 -18 -7 -21 7 -5 23 8 8 8
13 -1 18 -8 5 -7 11 2 23 8 10 8 13 1 9 -6 -4 -13 -4 -16 0 -2 5 -2 2 0 -6z"/>
<path d="M1457 684 c-9 -9 4 -35 14 -28 5 3 9 12 9 20 0 14 -12 19 -23 8z"/>
<path d="M1500 676 c0 -8 6 -17 13 -19 9 -4 8 -8 -3 -17 -13 -10 -13 -11 0 -7
8 2 15 14 14 25 0 16 3 19 12 11 7 -6 10 -17 7 -25 -3 -8 -1 -14 4 -14 14 0
12 33 -3 47 -17 17 -44 16 -44 -1z"/>
<path d="M2130 680 c0 -5 7 -10 16 -10 8 0 12 5 9 10 -3 6 -10 10 -16 10 -5 0
-9 -4 -9 -10z"/>
<path d="M3812 674 c10 -10 20 -16 22 -13 3 3 -5 11 -17 18 -21 13 -21 12 -5
-5z"/>
<path d="M3900 670 c0 -11 4 -20 8 -20 4 0 8 9 8 20 0 11 -4 20 -8 20 -4 0 -8
-9 -8 -20z"/>
<path d="M727 674 c-3 -3 -2 -16 2 -28 7 -20 -10 -72 -20 -61 -3 2 -5 -5 -6
-15 -1 -11 2 -22 7 -25 4 -2 7 3 6 13 -1 11 5 16 16 14 12 -2 20 6 24 25 4 15
11 33 16 40 5 7 5 14 -2 18 -6 3 -8 11 -5 16 7 10 -28 13 -38 3z m31 -27 c2
-9 -2 -17 -8 -17 -7 0 -10 6 -7 14 3 8 2 17 -4 20 -5 2 -4 3 3 2 7 -1 14 -10
16 -19z"/>
<path d="M1740 665 c0 -8 7 -15 15 -15 8 0 15 -5 15 -12 0 -6 2 -9 5 -7 2 3 2
15 -2 27 -6 25 -33 30 -33 7z"/>
<path d="M3407 674 c-4 -4 -4 -11 -1 -15 7 -13 44 -11 44 2 0 5 -5 7 -11 3 -6
-3 -14 -1 -18 5 -4 6 -10 8 -14 5z"/>
<path d="M900 660 c0 -6 6 -10 14 -10 7 0 26 -7 42 -15 22 -11 31 -12 43 -2
12 10 13 9 6 -3 -6 -12 -5 -12 5 -3 19 18 1 34 -32 29 -17 -2 -41 -1 -54 4
-15 6 -24 6 -24 0z"/>
<path d="M1050 660 c8 -5 20 -10 25 -10 6 0 3 5 -5 10 -8 5 -19 10 -25 10 -5
0 -3 -5 5 -10z"/>
<path d="M1707 656 c-8 -8 -17 -12 -21 -9 -3 4 -5 -36 -5 -88 1 -52 3 -86 6
-76 3 11 11 16 19 13 8 -3 14 -1 14 4 0 6 -7 10 -15 10 -9 0 -15 9 -14 23 0
21 1 21 9 2 7 -16 9 -17 9 -3 1 9 -3 20 -9 23 -16 10 -12 75 4 75 8 0 17 7 20
16 9 23 1 28 -17 10z"/>
<path d="M2320 660 c0 -5 5 -10 11 -10 5 0 7 5 4 10 -3 6 -8 10 -11 10 -2 0
-4 -4 -4 -10z"/>
<path d="M2391 665 c1 -19 18 -51 18 -35 0 8 -4 22 -9 30 -5 8 -9 11 -9 5z"/>
<path d="M3360 660 c0 -5 5 -10 11 -10 5 0 7 5 4 10 -3 6 -8 10 -11 10 -2 0
-4 -4 -4 -10z"/>
<path d="M197 643 c-2 -10 -8 -25 -11 -34 -5 -10 -2 -16 9 -16 10 0 15 10 15
34 0 36 -5 43 -13 16z"/>
<path d="M384 652 c6 -11 76 -14 76 -4 0 4 -18 8 -40 9 -22 1 -38 -1 -36 -5z"/>
<path d="M2980 645 c24 -8 46 -13 48 -11 5 5 -59 26 -77 25 -9 0 4 -7 29 -14z"/>
<path d="M3963 640 c-1 -11 2 -18 8 -15 11 7 12 35 1 35 -4 0 -8 -9 -9 -20z"/>
<path d="M330 634 c0 -8 5 -12 10 -9 6 3 10 10 10 16 0 5 -4 9 -10 9 -5 0 -10
-7 -10 -16z"/>
<path d="M709 645 c-1 -3 -2 -8 -3 -12 -1 -5 -5 -14 -9 -20 -5 -8 -4 -13 2
-13 6 0 11 3 12 8 0 4 2 15 4 25 3 15 -3 26 -6 12z"/>
<path d="M1051 634 c6 -7 17 -10 25 -7 20 7 18 10 -11 15 -20 4 -23 2 -14 -8z"/>
<path d="M1327 639 c-24 -14 -5 -47 34 -61 16 -5 26 -14 23 -20 -4 -6 -10 -5
-15 3 -7 12 -12 12 -30 1 -19 -12 -21 -12 -16 1 3 9 -1 21 -9 28 -12 10 -13 9
-9 -4 4 -10 -1 -17 -13 -21 -42 -14 -33 -47 16 -59 33 -8 27 2 -9 15 -28 9
-29 12 -15 26 11 12 18 13 29 4 8 -7 18 -8 22 -4 5 4 5 -1 2 -10 -5 -13 -2
-15 11 -11 15 6 16 5 2 -13 -14 -18 -14 -18 3 -5 17 13 17 15 0 35 -18 20 -18
20 10 3 25 -16 29 -16 52 -1 13 8 28 13 34 10 5 -3 12 0 14 6 4 10 6 10 6 0 1
-7 6 -10 11 -7 20 12 -1 24 -32 18 -23 -5 -29 -3 -23 6 6 10 3 11 -13 2 -15
-8 -21 -7 -25 3 -4 9 -14 12 -26 9 -13 -3 -21 -1 -21 6 0 7 5 9 12 5 7 -4 8
-3 4 5 -4 6 -12 8 -18 5 -6 -4 -6 2 1 15 13 24 13 24 -12 10z m83 -84 c-7 -8
-17 -15 -22 -15 -6 0 -5 7 2 15 7 8 17 15 22 15 6 0 5 -7 -2 -15z"/>
<path d="M2070 643 c0 -7 5 -15 10 -18 6 -4 8 -10 6 -13 -8 -14 44 -6 57 8 10
12 9 12 -5 1 -13 -10 -18 -10 -18 -2 0 7 -5 9 -12 5 -6 -4 -17 1 -25 11 -7 11
-13 14 -13 8z"/>
<path d="M2428 643 c7 -3 16 -2 19 1 4 3 -2 6 -13 5 -11 0 -14 -3 -6 -6z"/>
<path d="M2883 643 c-20 -3 -37 -12 -44 -24 -9 -18 -8 -19 18 -13 25 6 88 46
67 42 -5 0 -24 -3 -41 -5z"/>
<path d="M255 630 c-3 -5 -1 -10 4 -10 6 0 11 5 11 10 0 6 -2 10 -4 10 -3 0
-8 -4 -11 -10z"/>
<path d="M1453 633 c9 -2 23 -2 30 0 6 3 -1 5 -18 5 -16 0 -22 -2 -12 -5z"/>
<path d="M2254 612 c8 -16 12 -32 9 -36 -4 -3 -1 -6 5 -6 15 0 25 17 12 22 -6
2 -12 12 -14 23 -1 10 -8 21 -15 23 -9 3 -8 -4 3 -26z"/>
<path d="M2360 629 c0 -5 5 -7 10 -4 6 3 10 8 10 11 0 2 -4 4 -10 4 -5 0 -10
-5 -10 -11z"/>
<path d="M3460 632 c0 -5 14 -7 30 -4 17 2 30 6 30 8 0 2 -13 4 -30 4 -16 0
-30 -4 -30 -8z"/>
<path d="M3902 616 c1 -14 5 -23 9 -20 7 4 0 44 -7 44 -2 0 -3 -11 -2 -24z"/>
<path d="M280 616 c-6 -8 -19 -12 -28 -9 -13 4 -12 2 3 -11 11 -9 14 -15 6
-14 -7 2 -15 -7 -17 -20 -3 -16 0 -22 8 -20 7 3 13 10 13 16 0 5 3 14 8 18 4
4 7 2 7 -4 0 -7 5 -12 10 -12 6 0 5 8 -2 19 -9 15 -9 23 1 35 8 9 11 16 8 16
-2 0 -10 -6 -17 -14z"/>
<path d="M475 620 c3 -5 8 -10 11 -10 2 0 4 5 4 10 0 6 -5 10 -11 10 -5 0 -7
-4 -4 -10z"/>
<path d="M815 600 c-9 -16 -19 -30 -24 -30 -5 0 -7 -8 -4 -19 2 -10 -3 -25
-12 -35 -9 -9 -13 -16 -9 -16 4 0 -1 -6 -12 -14 -15 -12 -17 -17 -6 -27 9 -10
15 -10 24 -1 9 9 9 12 0 12 -7 0 -3 13 9 35 12 19 25 32 30 29 5 -3 9 0 9 5 0
6 -5 11 -10 11 -6 0 -2 9 9 21 11 12 17 28 14 37 -5 11 -3 13 7 7 9 -5 11 -4
6 3 -10 17 -14 15 -31 -18z"/>
<path d="M2517 612 c-10 -12 -9 -16 2 -20 11 -4 11 -6 0 -13 -10 -6 -11 -9 -1
-9 9 0 9 -4 1 -18 -8 -12 -8 -42 -2 -97 l9 -80 8 87 c4 49 13 91 18 95 7 3 8
1 4 -5 -5 -8 -2 -10 8 -6 19 7 19 8 1 43 -8 16 -12 31 -10 33 3 3 -2 5 -10 5
-8 0 -21 -7 -28 -15z m37 -33 c-3 -5 -11 -9 -17 -9 -8 0 -8 3 1 9 11 7 10 9
-3 15 -9 3 -13 11 -9 17 5 9 11 7 20 -6 7 -10 11 -22 8 -26z m-24 -66 c-4 -42
-5 -44 -8 -15 -3 30 2 62 10 62 2 0 1 -21 -2 -47z"/>
<path d="M3152 605 c0 -16 2 -22 5 -12 2 9 2 23 0 30 -3 6 -5 -1 -5 -18z"/>
<path d="M3380 615 c-10 -12 -10 -15 4 -15 9 0 16 7 16 15 0 8 -2 15 -4 15 -2
0 -9 -7 -16 -15z"/>
<path d="M299 603 c-13 -16 -12 -17 4 -4 9 7 17 15 17 17 0 8 -8 3 -21 -13z"/>
<path d="M3943 605 c0 -8 4 -15 9 -15 4 0 8 4 8 9 0 6 -4 12 -8 15 -5 3 -9 -1
-9 -9z"/>
<path d="M220 587 c0 -14 -5 -37 -11 -51 -8 -16 -9 -41 -3 -73 8 -47 8 -45 16
46 4 52 5 97 3 100 -3 2 -5 -7 -5 -22z"/>
<path d="M1008 590 c3 -8 5 -32 6 -52 0 -20 4 -39 8 -43 4 -4 2 -18 -3 -32 -7
-19 -6 -24 3 -20 7 2 12 13 10 23 -2 15 -1 16 7 5 9 -14 -10 -57 -34 -73 -5
-4 -11 -16 -11 -28 -1 -15 2 -17 11 -10 6 5 16 6 20 2 5 -4 5 -1 1 6 -4 7 -12
10 -17 7 -5 -4 -9 -2 -9 3 0 16 24 20 37 7 6 -7 10 -16 7 -19 -2 -3 -1 -4 3
-1 11 9 12 35 1 32 -6 -1 -13 4 -16 12 -3 8 0 11 7 7 10 -6 16 19 12 47 0 4 4
7 10 7 7 0 9 -10 7 -25 -3 -13 -1 -22 3 -19 18 11 8 45 -16 56 -13 6 -22 15
-19 19 3 5 2 15 -3 22 -11 18 -10 51 2 59 6 5 3 8 -7 8 -9 0 -18 3 -21 8 -2 4
-2 0 1 -8z"/>
<path d="M1070 596 c0 -20 19 -31 32 -18 7 7 3 14 -11 21 -17 10 -21 9 -21 -3z"/>
<path d="M1127 596 c-4 -10 -3 -15 3 -11 6 3 10 1 10 -6 0 -7 3 -10 6 -6 3 3
2 13 -4 22 -8 16 -9 16 -15 1z"/>
<path d="M2340 588 c0 -19 2 -20 10 -8 13 19 13 30 0 30 -5 0 -10 -10 -10 -22z"/>
<path d="M3420 600 c-8 -5 -12 -11 -9 -14 2 -3 11 -1 19 4 8 5 12 11 9 14 -2
3 -11 1 -19 -4z"/>
<path d="M502 549 c-1 -42 -6 -57 -28 -80 -15 -15 -30 -28 -33 -27 -3 0 -9 -1
-13 -2 -5 -1 -13 -3 -20 -4 -15 -1 -23 -26 -9 -27 61 -5 76 -2 77 17 1 10 2
25 3 33 1 7 7 11 15 8 10 -4 17 4 22 26 4 18 7 35 6 40 -1 4 2 7 7 7 5 0 3 14
-5 30 -9 17 -17 30 -18 30 -1 0 -3 -23 -4 -51z m-62 -118 c0 -14 -29 -21 -36
-9 -4 6 -3 8 4 4 6 -3 13 -2 17 4 8 12 15 13 15 1z m27 -6 c0 -8 -4 -12 -9 -9
-4 3 -8 9 -8 15 0 5 4 9 8 9 5 0 9 -7 9 -15z"/>
<path d="M2091 581 c-11 -19 -6 -169 5 -180 3 -3 3 28 -1 70 -6 64 -5 77 9 82
24 9 28 -7 25 -98 -2 -46 0 -87 4 -91 4 -4 7 41 7 99 0 76 -3 107 -12 107 -6
0 -3 7 8 16 18 14 18 15 -3 4 -13 -6 -23 -15 -23 -20 0 -6 -5 -10 -10 -10 -7
0 -7 6 0 20 6 11 8 20 6 20 -3 0 -10 -8 -15 -19z"/>
<path d="M1230 580 c-8 -5 -6 -9 5 -14 10 -3 13 -11 9 -18 -4 -8 -3 -10 2 -5
5 5 9 12 9 15 0 4 3 12 7 18 8 12 -15 15 -32 4z"/>
<path d="M3888 580 c17 -20 15 -35 -3 -20 -24 20 -43 -4 -41 -50 2 -42 -8 -54
-17 -20 -3 11 -13 20 -23 20 -16 0 -16 -1 1 -20 10 -11 14 -20 10 -20 -5 0 0
-6 11 -14 19 -14 50 -3 39 14 -3 5 -2 10 2 13 5 2 2 2 -4 1 -7 -2 -13 1 -13 6
0 6 5 10 10 10 6 0 10 5 10 11 0 5 -5 7 -11 3 -7 -4 -10 -1 -7 7 6 19 29 19
51 0 16 -13 17 -13 11 2 -5 13 -2 16 10 11 9 -3 16 -1 16 5 0 6 -6 10 -12 9
-7 -2 -12 5 -11 15 0 10 -2 16 -5 13 -3 -3 -12 0 -21 6 -13 10 -14 10 -3 -2z
m-14 -28 c3 -5 -1 -9 -9 -9 -8 0 -12 4 -9 9 3 4 7 8 9 8 2 0 6 -4 9 -8z"/>
<path d="M171 560 c0 -14 4 -34 9 -45 8 -18 9 -18 9 5 0 14 -4 34 -9 45 -8 18
-9 18 -9 -5z"/>
<path d="M2290 560 c-7 -13 -8 -20 -2 -16 7 4 12 -10 14 -36 l3 -43 5 48 c6
58 -3 79 -20 47z"/>
<path d="M2360 546 c0 -18 -3 -62 -7 -97 l-8 -64 -6 80 c-6 73 -6 71 -4 -23 2
-59 8 -109 14 -115 8 -8 11 0 12 28 1 35 2 37 9 15 10 -30 11 -28 15 35 3 37
2 43 -5 25 -6 -18 -8 -6 -8 45 1 59 2 64 8 30 5 -29 8 -33 9 -14 2 38 -10 89
-20 89 -5 0 -9 -15 -9 -34z"/>
<path d="M3057 569 c7 -7 15 -10 18 -7 3 3 -2 9 -12 12 -14 6 -15 5 -6 -5z"/>
<path d="M3365 570 c-3 -5 -1 -10 4 -10 6 0 11 5 11 10 0 6 -2 10 -4 10 -3 0
-8 -4 -11 -10z"/>
<path d="M1037 550 c-3 -11 -1 -20 4 -20 5 0 9 2 9 4 0 2 3 11 6 20 3 9 2 16
-4 16 -5 0 -12 -9 -15 -20z"/>
<path d="M1124 545 c0 -13 4 -21 8 -19 4 3 8 0 8 -6 0 -7 -9 -14 -20 -17 -19
-5 -25 -20 -21 -51 1 -8 -3 -20 -10 -29 -7 -8 -13 -23 -14 -34 -2 -18 0 -18
22 3 12 12 23 24 23 27 0 3 -5 0 -12 -7 -17 -17 -33 -15 -18 3 7 8 20 15 29
15 14 0 14 2 1 10 -12 8 -12 10 5 11 11 0 15 3 9 5 -7 3 -9 14 -7 25 4 14 8
17 13 9 4 -7 8 -1 8 14 0 15 -5 29 -10 32 -6 4 -6 9 2 14 9 5 8 9 -2 13 -10 3
-14 -3 -14 -18z"/>
<path d="M1512 551 c6 -11 16 -17 21 -14 12 7 4 -30 -8 -39 -6 -5 -6 -8 2 -8
6 0 15 5 18 10 4 6 11 7 17 4 23 -14 -13 34 -37 50 -25 17 -25 16 -13 -3z"/>
<path d="M3180 560 c0 -5 -7 -10 -15 -10 -11 0 -15 -11 -14 -42 1 -24 4 -33 6
-21 2 12 10 20 16 17 8 -3 12 8 13 31 1 19 0 35 -2 35 -2 0 -4 -4 -4 -10z"/>
<path d="M3410 561 c0 -6 4 -13 10 -16 6 -3 7 1 4 9 -7 18 -14 21 -14 7z"/>
<path d="M607 554 c-8 -8 1 -24 14 -24 5 0 9 7 9 15 0 15 -12 20 -23 9z"/>
<path d="M2262 471 c-2 -79 0 -92 13 -87 12 4 15 -3 16 -32 1 -20 3 -28 6 -17
2 11 -1 47 -6 80 l-9 60 -3 -45 c-2 -31 -5 -17 -9 45 l-6 90 -2 -94z"/>
<path d="M3761 544 c0 -11 3 -14 6 -6 3 7 2 16 -1 19 -3 4 -6 -2 -5 -13z"/>
<path d="M254 528 c-11 -12 -14 -18 -7 -15 6 4 14 3 17 -2 3 -5 -2 -12 -12
-16 -16 -6 -16 -7 2 -20 10 -8 15 -18 11 -24 -3 -6 -2 -11 4 -11 13 0 22 15
14 24 -13 13 -11 35 3 29 8 -3 11 -10 7 -16 -3 -6 -1 -7 5 -3 15 9 4 36 -15
36 -12 0 -13 3 -4 14 20 24 -5 27 -25 4z"/>
<path d="M3063 510 c0 -25 2 -35 4 -22 2 12 2 32 0 45 -2 12 -4 2 -4 -23z"/>
<path d="M3320 471 c0 -54 4 -80 13 -84 9 -3 11 15 9 79 -4 106 -22 110 -22 5z"/>
<path d="M3374 465 c0 -49 1 -71 3 -48 2 23 2 64 0 90 -2 26 -3 8 -3 -42z"/>
<path d="M680 525 c0 -8 5 -15 11 -15 5 0 7 -5 3 -12 -4 -7 -3 -8 5 -4 8 6 9
12 2 20 -6 7 -8 16 -4 19 3 4 1 7 -5 7 -7 0 -12 -7 -12 -15z"/>
<path d="M1406 518 c-16 -22 -12 -43 6 -32 6 4 14 0 19 -7 7 -11 9 -10 9 5 0
12 5 16 15 12 19 -7 19 11 1 30 -20 19 -32 18 -50 -8z m31 -2 c0 -8 -9 -17
-19 -19 -22 -6 -23 -3 -2 17 19 20 21 20 21 2z"/>
<path d="M2590 528 c0 -16 19 -47 21 -33 0 6 2 18 4 28 2 9 -3 17 -11 17 -8 0
-14 -6 -14 -12z"/>
<path d="M560 522 c0 -6 9 -14 20 -17 11 -3 20 -11 20 -16 0 -6 -7 -6 -19 1
-16 8 -19 7 -16 -8 2 -9 4 -20 4 -24 1 -10 38 -5 48 7 5 4 2 5 -4 1 -19 -11
-16 5 5 21 9 8 11 12 5 8 -7 -3 -13 -2 -13 4 0 5 6 12 13 15 6 3 2 3 -11 0
-13 -3 -29 0 -37 6 -10 8 -15 9 -15 2z"/>
<path d="M1057 510 c-3 -12 0 -20 8 -20 8 0 11 8 8 20 -3 11 -7 20 -8 20 -1 0
-5 -9 -8 -20z"/>
<path d="M3956 497 c-21 -42 -16 -58 9 -33 9 9 15 28 13 43 -3 28 -3 28 -22
-10z"/>
<path d="M804 501 c0 -11 5 -17 14 -14 14 6 12 25 -4 30 -5 2 -10 -5 -10 -16z"/>
<path d="M2770 506 c0 -8 5 -18 10 -21 6 -3 10 1 10 9 0 8 -4 18 -10 21 -5 3
-10 -1 -10 -9z"/>
<path d="M3729 484 c-9 -12 -10 -15 -1 -10 6 4 12 2 12 -3 0 -6 -7 -11 -16
-11 -8 0 -13 -4 -9 -9 3 -5 1 -12 -5 -16 -5 -3 -10 -16 -10 -28 0 -18 -2 -19
-10 -7 -8 13 -14 8 -12 -11 1 -4 -12 -21 -28 -39 -17 -19 -30 -34 -30 -35 0 0
23 -2 51 -3 28 -1 48 2 45 7 -4 5 0 12 6 14 7 3 0 6 -17 6 -23 1 -26 -2 -15
-9 12 -8 11 -10 -7 -10 -12 0 -20 6 -19 13 3 17 25 54 26 42 0 -5 5 -3 10 5 8
13 11 12 25 -5 13 -16 16 -17 11 -3 -7 24 11 32 23 11 6 -10 11 -12 11 -5 0 6
4 12 9 12 5 0 7 -9 4 -20 -3 -11 -10 -17 -16 -13 -5 3 -7 1 -3 -5 3 -5 0 -12
-6 -15 -7 -3 -3 -4 9 -4 12 1 19 5 17 9 -3 4 0 8 6 8 7 0 10 7 6 15 -3 9 0 15
9 15 9 0 15 10 15 26 0 14 -4 23 -10 19 -5 -3 -7 -12 -3 -20 3 -8 0 -15 -7
-15 -8 0 -10 9 -6 25 5 18 1 27 -13 35 -16 8 -22 6 -31 -10 -6 -11 -8 -20 -4
-20 3 0 1 -7 -6 -15 -7 -8 -16 -12 -22 -9 -5 3 -4 12 3 20 6 8 8 14 3 14 -4 0
3 11 16 25 16 17 20 29 13 36 -7 7 -14 4 -24 -7z m41 -70 c0 -14 -4 -23 -9
-20 -7 5 -8 23 -2 44 4 12 11 -3 11 -24z"/>
<path d="M3900 491 c0 -6 4 -13 10 -16 6 -3 7 1 4 9 -7 18 -14 21 -14 7z"/>
<path d="M535 480 c-3 -5 -1 -10 4 -10 6 0 11 5 11 10 0 6 -2 10 -4 10 -3 0
-8 -4 -11 -10z"/>
<path d="M1483 483 c-19 -7 -16 -20 6 -26 19 -5 36 15 24 27 -7 7 -13 7 -30
-1z"/>
<path d="M1547 469 c-3 -12 -10 -18 -15 -15 -6 3 -8 -10 -6 -35 3 -29 1 -38
-8 -33 -7 4 -8 3 -4 -4 5 -9 12 -8 26 0 11 7 16 15 12 18 -4 3 -9 16 -10 30
-3 20 -1 22 10 12 12 -9 14 -6 14 18 0 35 -11 40 -19 9z"/>
<path d="M2043 470 c1 -11 5 -20 9 -20 11 0 10 28 -1 35 -6 3 -9 -4 -8 -15z"/>
<path d="M2739 478 c-3 -28 3 -44 23 -60 11 -10 17 -18 13 -18 -11 0 26 -40
48 -52 31 -16 54 -17 54 -1 0 10 -7 13 -24 8 -13 -3 -23 -1 -23 5 0 5 3 9 8 9
19 -3 32 2 32 12 0 8 -5 8 -15 -1 -12 -10 -15 -10 -15 0 0 9 -3 10 -13 1 -10
-8 -19 -7 -33 5 -18 15 -18 15 3 5 16 -8 22 -7 27 4 4 10 -1 15 -15 15 -12 0
-17 4 -13 11 4 8 -1 9 -17 4 -23 -7 -23 -7 -6 12 9 11 17 23 17 27 0 5 -9 -2
-20 -15 -18 -23 -19 -23 -21 -4 -1 11 -1 26 0 33 1 6 -1 12 -4 12 -3 0 -6 -6
-6 -12z"/>
<path d="M3131 463 c-5 -44 -5 -46 -14 -60 -5 -8 -4 -13 2 -13 6 0 11 -16 11
-36 l0 -36 -95 4 c-52 1 -95 0 -95 -4 0 -5 57 -7 128 -7 70 1 115 4 100 6 -27
4 -27 5 -31 91 -1 48 -4 72 -6 55z"/>
<path d="M690 470 c0 -5 5 -10 10 -10 6 0 10 5 10 10 0 6 -4 10 -10 10 -5 0
-10 -4 -10 -10z"/>
<path d="M812 473 c-6 -2 -9 -9 -6 -14 3 -6 -1 -21 -10 -34 -10 -15 -12 -26
-6 -30 6 -4 8 -11 5 -16 -4 -5 1 -9 9 -9 9 0 15 -3 15 -7 -4 -27 2 -34 17 -18
13 13 19 14 25 4 4 -7 6 -16 4 -19 -4 -7 88 0 97 8 4 4 -15 5 -42 4 -55 -4
-55 -4 -39 31 10 23 13 24 36 12 14 -8 32 -11 41 -8 11 5 13 3 7 -7 -5 -9 -4
-11 4 -6 19 12 -6 34 -33 29 -13 -3 -27 1 -31 8 -6 9 -3 10 10 5 14 -5 16 -4
7 7 -7 8 -11 16 -9 18 1 2 -5 -4 -13 -13 -15 -17 -41 -12 -42 8 -1 18 -18 54
-25 53 -5 0 -14 -3 -21 -6z m28 -12 c0 -5 3 -18 7 -28 6 -16 5 -16 -10 -4 -15
12 -17 12 -11 -3 3 -9 11 -16 18 -16 26 -1 39 -17 27 -36 -6 -11 -11 -15 -11
-11 0 4 -10 2 -22 -4 -23 -12 -23 -12 -4 10 11 11 16 24 11 29 -4 4 -10 1 -12
-5 -3 -7 -8 -13 -13 -13 -15 0 -20 32 -8 53 7 12 11 25 10 30 -1 4 3 7 8 7 6
0 10 -4 10 -9z"/>
<path d="M2002 409 l-2 -77 45 -4 c25 -2 45 0 45 4 0 5 -18 8 -40 8 -38 0 -40
2 -40 31 0 16 4 28 8 25 5 -3 9 1 9 9 0 8 -4 12 -8 9 -4 -2 -10 13 -12 33 -2
21 -4 4 -5 -38z"/>
<path d="M958 446 c-27 -21 -26 -38 1 -44 19 -4 51 8 51 19 0 6 -5 7 -11 3 -7
-4 -9 0 -5 14 10 30 -5 33 -36 8z m22 -11 c-10 -12 -10 -15 0 -15 8 0 11 -3 7
-6 -3 -3 -15 -3 -26 1 l-21 6 22 19 c26 21 37 18 18 -5z"/>
<path d="M1690 460 c-8 -5 -12 -12 -9 -15 4 -3 12 1 19 10 14 17 11 19 -10 5z"/>
<path d="M3181 454 c0 -11 3 -14 6 -6 3 7 2 16 -1 19 -3 4 -6 -2 -5 -13z"/>
<path d="M3392 425 c-2 -44 1 -51 18 -52 13 -1 20 4 20 15 0 14 -2 15 -10 2
-8 -13 -10 -13 -14 0 -3 8 -7 31 -9 50 -3 27 -4 24 -5 -15z"/>
<path d="M320 456 c0 -2 8 -10 18 -17 15 -13 16 -12 3 4 -13 16 -21 21 -21 13z"/>
<path d="M1217 451 c12 -9 16 -44 4 -36 -6 3 -9 0 -6 -8 7 -17 63 -18 69 0 6
16 1 16 -24 3 -14 -7 -19 -5 -23 10 -3 13 0 20 8 20 8 0 16 4 19 8 3 5 -8 9
-25 9 -16 0 -26 -3 -22 -6z"/>
<path d="M1268 438 c-10 -10 -14 -18 -9 -18 6 0 13 5 17 11 4 8 9 7 15 -2 7
-11 9 -10 9 3 0 25 -13 27 -32 6z"/>
<path d="M1316 437 c1 -9 -4 -21 -12 -25 -18 -10 -8 -42 12 -42 8 0 14 8 14
18 0 14 -2 15 -10 2 -7 -11 -10 -12 -10 -2 0 8 10 22 22 31 16 14 18 20 8 26
-9 5 -11 4 -6 -3 4 -7 3 -12 -3 -12 -5 0 -11 6 -14 13 -2 6 -3 4 -1 -6z"/>
<path d="M1786 445 c-4 -10 1 -15 16 -15 17 0 18 2 8 15 -7 8 -14 15 -15 15
-2 0 -5 -7 -9 -15z"/>
<path d="M2643 425 c0 -22 2 -30 4 -17 2 12 2 30 0 40 -3 9 -5 -1 -4 -23z"/>
<path d="M3900 450 c0 -5 5 -10 12 -12 7 -3 9 -11 4 -24 -10 -23 -18 -109 -10
-101 3 3 7 24 9 46 1 23 8 48 15 56 6 8 10 20 8 26 -5 14 -38 22 -38 9z"/>
<path d="M179 448 c-7 -23 -8 -88 -1 -88 5 0 10 20 10 45 1 25 0 45 -3 45 -3
0 -5 -1 -6 -2z"/>
<path d="M715 439 c-4 -6 -4 -13 -1 -16 3 -4 6 -1 6 6 0 7 5 9 12 5 7 -4 8 -3
4 4 -9 15 -13 15 -21 1z"/>
<path d="M2870 437 c0 -8 12 -19 28 -26 15 -7 24 -9 20 -5 -4 4 -3 13 3 21 6
7 10 13 8 14 -42 9 -59 8 -59 -4z m40 -11 c-7 -7 -13 -7 -20 0 -6 6 -3 10 10
10 13 0 16 -4 10 -10z"/>
<path d="M565 421 c1 -8 8 -17 16 -19 11 -3 11 -1 -1 7 -13 10 -8 15 13 12 4
0 7 3 7 8 0 6 -8 9 -19 8 -10 0 -18 -8 -16 -16z"/>
<path d="M1852 415 c8 -18 17 -24 30 -19 10 3 18 0 18 -7 0 -9 3 -9 14 0 17
14 17 48 0 48 -6 0 -9 -8 -7 -17 5 -19 -34 -23 -41 -3 -3 8 1 10 12 7 14 -5
15 -4 2 5 -28 20 -41 14 -28 -14z"/>
<path d="M3055 427 c-16 -20 -16 -37 -1 -37 8 0 14 10 14 25 0 14 -1 25 -2 25
0 -1 -5 -6 -11 -13z"/>
<path d="M3178 396 c-7 -39 -4 -55 8 -44 3 3 4 23 2 44 l-3 39 -7 -39z"/>
<path d="M3971 420 c-1 -23 15 -43 28 -36 14 9 15 36 1 36 -5 0 -7 -8 -4 -17
3 -10 -2 -7 -10 7 -9 15 -15 19 -15 10z"/>
<path d="M367 399 c3 -11 12 -23 19 -26 16 -6 7 -33 -12 -33 -8 0 -22 9 -31
19 -9 11 -20 18 -25 15 -4 -3 -8 0 -8 5 0 6 5 11 10 11 6 0 10 5 10 10 0 21
-19 8 -29 -20 -5 -16 -15 -30 -21 -30 -6 0 -8 5 -4 12 4 7 3 8 -4 4 -9 -5 -9
-13 -1 -27 9 -18 8 -19 -9 -10 -14 7 -19 7 -19 -4 0 -8 4 -12 8 -9 4 2 10 0
14 -6 4 -6 11 -8 16 -5 5 4 9 -14 9 -41 0 -41 -2 -46 -20 -41 -11 3 -18 1 -14
-4 3 -5 -3 -9 -13 -10 -10 0 -13 -3 -5 -6 6 -2 12 -9 12 -14 0 -6 -5 -7 -10
-4 -5 3 -10 1 -10 -5 0 -6 15 -10 35 -8 l34 2 -2 89 c-2 76 0 90 15 98 17 9
27 -4 11 -14 -5 -2 -3 -2 4 -1 6 2 14 -4 17 -13 4 -8 13 -13 21 -9 8 3 17 1
20 -4 4 -6 13 -10 21 -10 8 0 12 5 9 10 -4 6 -11 8 -16 5 -5 -4 -9 -1 -9 5 0
17 31 24 40 9 7 -11 10 -11 15 3 4 9 16 15 31 14 24 -1 35 -16 12 -16 -6 0 -9
-2 -6 -5 12 -12 36 8 33 26 -4 22 -1 23 27 8 12 -7 18 -7 14 -1 -3 6 0 13 6
16 7 3 3 3 -9 1 -12 -3 -24 -1 -28 5 -3 5 0 10 7 10 9 0 9 3 -2 10 -11 7 -20
3 -35 -15 -11 -13 -31 -25 -45 -26 -28 -3 -70 9 -69 19 3 18 -2 32 -10 32 -5
0 -7 -9 -4 -21z m140 -22 c0 -8 -6 -14 -14 -14 -9 0 -10 4 -2 14 6 7 12 13 14
13 1 0 2 -6 2 -13z m-227 -182 c-7 -9 -15 -13 -17 -11 -7 7 7 26 19 26 6 0 6
-6 -2 -15z"/>
<path d="M750 405 c0 -8 4 -15 10 -15 5 0 7 7 4 15 -4 8 -8 15 -10 15 -2 0 -4
-7 -4 -15z"/>
<path d="M1347 413 c-2 -5 -3 -15 -2 -23 0 -8 -4 -19 -10 -23 -7 -6 -6 -10 3
-14 17 -7 5 -23 -13 -17 -8 4 -12 10 -9 15 3 5 -2 6 -10 3 -9 -3 -16 -10 -16
-16 0 -5 4 -7 9 -3 5 3 12 1 16 -4 3 -5 14 -9 24 -8 14 1 18 7 15 27 -3 17 -2
21 5 11 5 -8 14 -10 22 -6 9 6 6 11 -12 17 -19 7 -21 11 -9 18 11 7 12 10 2
10 -7 0 -10 5 -7 10 3 6 4 10 1 10 -3 0 -7 -3 -9 -7z"/>
<path d="M1377 403 c3 -7 9 -10 14 -7 5 3 9 0 9 -5 0 -6 11 -11 23 -11 25 0
34 -29 13 -42 -7 -5 -6 -8 4 -8 25 0 40 33 25 54 -7 9 -19 16 -27 15 -24 -3
-39 1 -34 9 2 4 -4 8 -14 8 -10 0 -16 -6 -13 -13z"/>
<path d="M1705 410 c-3 -5 -1 -10 4 -10 6 0 11 5 11 10 0 6 -2 10 -4 10 -3 0
-8 -4 -11 -10z"/>
<path d="M242 398 c2 -6 10 -14 16 -16 7 -2 10 2 6 12 -7 18 -28 22 -22 4z"/>
<path d="M1780 396 c0 -9 -5 -16 -12 -16 -6 0 -9 -2 -6 -5 3 -3 15 -2 27 3 20
7 21 9 7 21 -14 11 -16 11 -16 -3z"/>
<path d="M2541 378 c1 -22 3 -26 6 -13 3 11 13 25 22 32 14 11 14 12 -6 13
-20 0 -23 -5 -22 -32z"/>
<path d="M2925 400 c-3 -5 -14 -7 -25 -5 -12 2 -18 0 -15 -6 8 -11 45 -12 63
0 11 7 11 9 -2 14 -8 3 -18 2 -21 -3z"/>
<path d="M2985 399 c-4 -5 3 -9 14 -9 26 0 35 15 11 17 -11 1 -22 -2 -25 -8z"/>
<path d="M212 360 c0 -25 2 -37 5 -27 2 9 11 17 20 17 8 0 13 5 11 11 -2 6 -8
10 -13 9 -5 -1 -12 7 -16 17 -5 11 -7 1 -7 -27z"/>
<path d="M349 387 c6 -8 8 -16 5 -19 -2 -3 2 -8 10 -11 13 -5 13 -2 4 18 -6
14 -16 25 -21 25 -5 0 -5 -6 2 -13z"/>
<path d="M415 390 c-3 -5 3 -10 14 -10 12 0 21 5 21 10 0 6 -6 10 -14 10 -8 0
-18 -4 -21 -10z"/>
<path d="M1748 393 c7 -3 16 -2 19 1 4 3 -2 6 -13 5 -11 0 -14 -3 -6 -6z"/>
<path d="M1826 385 c-3 -8 -3 -23 0 -32 5 -17 5 -17 -9 0 -8 9 -18 17 -22 17
-5 0 0 -9 10 -20 14 -15 31 -20 72 -20 29 0 53 3 53 8 0 4 -20 6 -44 4 -34 -3
-45 0 -50 13 -3 10 -1 24 5 31 7 9 8 14 1 14 -5 0 -12 -7 -16 -15z"/>
<path d="M2104 385 c-3 -8 -4 -20 -2 -27 3 -7 7 -1 10 15 6 29 1 36 -8 12z"/>
<path d="M1252 382 c-10 -3 -8 -8 5 -17 20 -15 33 -11 33 9 0 13 -15 16 -38 8z"/>
<path d="M1716 375 c-6 -18 32 -45 69 -49 24 -3 25 -2 9 15 -9 11 -22 19 -28
18 -6 0 -6 -3 2 -6 6 -2 12 -9 12 -14 0 -5 -13 -3 -30 6 -19 10 -27 20 -24 30
4 8 4 15 1 15 -3 0 -7 -7 -11 -15z"/>
<path d="M770 371 c0 -6 4 -13 10 -16 6 -3 7 1 4 9 -7 18 -14 21 -14 7z"/>
<path d="M3932 313 c-2 -70 -16 -98 -25 -50 -3 12 -4 -4 -4 -36 0 -32 4 -53 8
-46 4 7 6 22 3 33 -3 18 -2 19 9 5 12 -16 18 -19 37 -19 6 0 9 -5 8 -12 -4
-15 31 -23 44 -10 15 15 -12 47 -39 48 -14 1 -20 -3 -16 -10 4 -7 2 -8 -5 -1
-6 6 -13 46 -15 90 l-3 80 -2 -72z m73 -124 c-11 -16 -31 -10 -32 11 -2 17 1
18 18 10 11 -6 17 -15 14 -21z"/>
<path d="M2260 346 c0 -15 4 -25 9 -22 10 7 9 31 -2 42 -4 4 -7 -5 -7 -20z"/>
<path d="M2603 358 c21 -7 32 -7 40 1 8 8 0 11 -28 10 -40 -1 -40 -1 -12 -11z"/>
<path d="M3368 335 c-3 -14 -1 -25 3 -25 5 0 9 11 9 25 0 14 -2 25 -4 25 -2 0
-6 -11 -8 -25z"/>
<path d="M1005 340 c-3 -5 -1 -10 4 -10 6 0 11 5 11 10 0 6 -2 10 -4 10 -3 0
-8 -4 -11 -10z"/>
<path d="M3330 334 c0 -11 -6 -15 -20 -11 -11 3 -18 1 -14 -4 3 -5 16 -9 30
-9 17 0 24 5 24 20 0 11 -4 20 -10 20 -5 0 -10 -7 -10 -16z"/>
<path d="M1378 328 c9 -9 15 -9 24 0 9 9 7 12 -12 12 -19 0 -21 -3 -12 -12z"/>
<path d="M2125 330 c3 -5 8 -10 11 -10 2 0 4 5 4 10 0 6 -5 10 -11 10 -5 0 -7
-4 -4 -10z"/>
<path d="M2540 329 c0 -5 5 -7 10 -4 6 3 10 8 10 11 0 2 -4 4 -10 4 -5 0 -10
-5 -10 -11z"/>
<path d="M2593 333 c9 -2 25 -2 35 0 9 3 1 5 -18 5 -19 0 -27 -2 -17 -5z"/>
<path d="M2898 333 c6 -2 18 -2 25 0 6 3 1 5 -13 5 -14 0 -19 -2 -12 -5z"/>
<path d="M3398 313 c6 -2 18 -2 25 0 6 3 1 5 -13 5 -14 0 -19 -2 -12 -5z"/>
<path d="M178 293 c-2 -10 -1 -31 3 -48 6 -26 7 -23 8 18 1 48 -3 61 -11 30z"/>
<path d="M211 274 c0 -11 3 -14 6 -6 3 7 2 16 -1 19 -3 4 -6 -2 -5 -13z"/>
<path d="M209 248 c-6 -12 -4 -48 2 -48 5 0 9 11 9 25 0 21 -6 33 -11 23z"/>
<path d="M180 195 c0 -9 7 -18 15 -22 24 -9 27 1 5 20 -17 14 -20 15 -20 2z"/>
<path d="M1790 120 c0 -56 2 -60 23 -60 36 0 67 27 67 60 0 33 -31 60 -67 60
-21 0 -23 -4 -23 -60z m70 20 c14 -26 -3 -60 -30 -60 -17 0 -20 7 -20 40 0 33
3 40 20 40 10 0 24 -9 30 -20z"/>
<path d="M1930 120 c0 -33 4 -60 10 -60 6 0 10 27 10 60 0 33 -4 60 -10 60 -6
0 -10 -27 -10 -60z"/>
<path d="M2017 162 c-36 -40 -9 -102 45 -102 25 0 58 27 58 48 0 7 -11 12 -25
12 -28 0 -34 -17 -7 -22 15 -3 14 -6 -5 -16 -48 -26 -90 31 -51 70 12 12 26
17 36 13 49 -20 48 -20 33 -2 -18 22 -64 22 -84 -1z"/>
<path d="M2170 120 c0 -33 4 -60 10 -60 6 0 10 27 10 60 0 33 -4 60 -10 60 -6
0 -10 -27 -10 -60z"/>
<path d="M2235 170 c3 -5 12 -10 20 -10 10 0 15 -16 18 -52 l3 -53 2 53 c2 45
5 52 22 52 11 0 20 5 20 10 0 6 -21 10 -46 10 -27 0 -43 -4 -39 -10z"/>
<path d="M2374 125 c-27 -62 -28 -65 -15 -65 5 0 11 9 14 20 7 27 53 27 67 -1
7 -11 14 -19 16 -16 6 6 -43 117 -51 117 -3 0 -17 -25 -31 -55z m46 -1 c0 -8
-7 -14 -15 -14 -17 0 -18 2 -9 24 7 18 24 12 24 -10z"/>
<path d="M2512 123 l-2 -63 35 0 c19 0 35 5 35 10 0 6 -13 10 -29 10 -29 0
-30 2 -34 53 l-3 52 -2 -62z"/>
</g>
</svg>
